<svg width="180" height="180" viewBox="0 0 180 180" fill="none" xmlns="http://www.w3.org/2000/svg">
  <rect width="180" height="180" rx="37" fill="#ffffff"/>
  <!-- Yuk mashinasi old ko'rinishi -->
  <g transform="translate(20, 40)">
    <!-- Yuk mashinasi kabinasi -->
    <rect x="35" y="20" width="70" height="50" fill="#1e40af" rx="5"/>
    
    <!-- Old oyna -->
    <rect x="40" y="25" width="60" height="35" fill="#e0f2fe" rx="3"/>
    <line x1="70" y1="25" x2="70" y2="60" stroke="#1e40af" stroke-width="2"/>
    
    <!-- Yon oynalar -->
    <rect x="25" y="30" width="12" height="25" fill="#1e40af" rx="2"/>
    <rect x="103" y="30" width="12" height="25" fill="#1e40af" rx="2"/>
    
    <!-- Yon ko'zguqchalar -->
    <rect x="15" y="35" width="8" height="15" fill="#0f172a" rx="1"/>
    <rect x="117" y="35" width="8" height="15" fill="#0f172a" rx="1"/>
    
    <!-- Grill -->
    <rect x="45" y="75" width="50" height="8" fill="#0f172a" rx="1"/>
    <line x1="50" y1="77" x2="95" y2="77" stroke="#1e40af" stroke-width="1"/>
    <line x1="50" y1="80" x2="95" y2="80" stroke="#1e40af" stroke-width="1"/>
    <line x1="50" y1="83" x2="95" y2="83" stroke="#1e40af" stroke-width="1"/>
    
    <!-- Faralar -->
    <circle cx="42" cy="85" r="6" fill="#fbbf24" stroke="#1e40af" stroke-width="2"/>
    <circle cx="42" cy="85" r="3" fill="#ffffff"/>
    <circle cx="98" cy="85" r="6" fill="#fbbf24" stroke="#1e40af" stroke-width="2"/>
    <circle cx="98" cy="85" r="3" fill="#ffffff"/>
    
    <!-- Pastki bumper -->
    <rect x="40" y="92" width="60" height="5" fill="#475569" rx="2"/>
  </g>
</svg>
